<svg width="490" height="657" viewBox="0 0 490 657" fill="none" xmlns="http://www.w3.org/2000/svg">
<path fill-rule="evenodd" clip-rule="evenodd" d="M408.622 553.61C451.266 496.432 478 416.883 478 328.5C478 240.117 451.266 160.568 408.622 103.39C365.978 46.2125 308.002 12 245 12C181.998 12 124.022 46.2125 81.3781 103.39C38.7337 160.568 12 240.117 12 328.5C12 416.883 38.7337 496.432 81.3781 553.61C124.022 610.787 181.998 645 245 645C308.002 645 365.978 610.787 408.622 553.61ZM245 657C380.31 657 490 509.926 490 328.5C490 147.074 380.31 0 245 0C109.69 0 0 147.074 0 328.5C0 509.926 109.69 657 245 657ZM391.298 530.382C429.509 479.148 453.5 407.812 453.5 328.5C453.5 249.188 429.509 177.852 391.298 126.618C353.088 75.3857 301.236 44.85 245 44.85C188.764 44.85 136.912 75.3857 98.7022 126.618C60.4915 177.852 36.5 249.188 36.5 328.5C36.5 407.812 60.4915 479.148 98.7022 530.382C136.912 581.614 188.764 612.15 245 612.15C301.236 612.15 353.088 581.614 391.298 530.382ZM245 624.15C366.779 624.15 465.5 491.783 465.5 328.5C465.5 165.217 366.779 32.85 245 32.85C123.221 32.85 24.5 165.217 24.5 328.5C24.5 491.783 123.221 624.15 245 624.15ZM240.62 273.578L237.623 272.942C234.635 280.183 231.647 285.597 228.658 289.183C223.571 285.827 220.008 282.916 217.971 280.451C215.367 277.363 214.065 273.942 214.065 270.188C214.065 265.284 216.124 260.925 220.241 257.11C224.358 253.235 229.565 251.298 235.862 251.298C241.433 251.298 246.821 252.721 252.028 255.566C257.235 258.412 261.231 262.257 264.017 267.101C266.862 271.944 268.83 278.453 269.92 286.627H273.28V244.032H269.92C269.314 246.878 268.497 248.785 267.468 249.754C266.499 250.662 265.228 251.116 263.653 251.116C262.261 251.116 259.869 250.359 256.479 248.846C249.152 245.637 242.22 244.032 235.681 244.032C225.206 244.032 216.578 247.241 209.797 253.659C203.016 260.017 199.625 267.615 199.625 276.455C199.625 281.541 200.775 286.203 203.076 290.441C204.669 293.375 206.769 296.135 209.377 298.72C206.165 299.033 202.321 299.189 197.844 299.189H188.853C180.921 299.189 176.198 298.887 174.685 298.281C173.171 297.676 172.051 296.737 171.324 295.466C170.355 293.589 169.871 290.138 169.871 285.112V207.733C169.871 200.407 170.355 195.775 171.324 193.838C172.293 191.9 174.079 190.296 176.683 189.024C179.347 187.753 183.948 187.147 190.487 187.208V183.848H134.724V187.208H139.355C144.018 187.208 147.529 188.54 149.891 191.204C151.586 193.142 152.434 197.955 152.434 205.645V285.112C152.434 292.136 151.798 296.616 150.526 298.554C148.286 301.944 144.562 303.64 139.355 303.64H134.724V307H220.2C224.308 309.657 229.468 312.735 235.681 316.234C243.019 320.325 248.374 323.432 251.747 325.555L250.631 347.729H254.082C254.506 342.158 255.838 337.738 258.078 334.469C258.639 333.651 259.228 332.899 259.845 332.214C261.016 333.562 261.983 334.956 262.745 336.396C264.44 339.484 265.288 342.542 265.288 345.569C265.288 351.019 263.078 355.741 258.658 359.737C254.299 363.733 248.335 365.731 240.767 365.731C234.228 365.731 228.203 364.278 222.693 361.372C217.244 358.466 213.188 354.833 210.523 350.474C207.859 346.054 205.74 339.424 204.166 330.584H200.806V372.815H204.166C204.59 369.97 205.226 368.093 206.073 367.185C206.981 366.276 208.192 365.822 209.706 365.822C211.28 365.822 215.004 366.791 220.877 368.729C226.811 370.605 230.716 371.695 232.593 371.998C235.741 372.543 239.102 372.815 242.674 372.815C254.057 372.815 263.351 369.455 270.556 362.734C277.821 355.953 281.454 347.9 281.454 338.576C281.454 334.421 280.628 330.418 278.977 326.567H293.226V420.657C293.226 427.56 292.56 431.979 291.228 433.917C289.048 437.065 285.354 438.64 280.147 438.64H275.788V442H328.01V438.64H323.741C318.958 438.64 315.416 437.368 313.115 434.825C311.48 432.948 310.663 428.226 310.663 420.657V326.567H328.01C333.096 326.567 337.183 327.415 340.271 329.11C343.419 330.745 345.932 333.318 347.809 336.83C348.959 339.01 349.867 342.643 350.533 347.729H353.984L352.622 318.848H274.395C272.663 316.672 270.627 314.68 268.285 312.874C264.107 309.544 256.267 304.791 244.763 298.615C240.985 296.588 237.578 294.67 234.542 292.86L240.62 273.578Z" fill="#F4F4F4"/>
</svg>
